<svg width="2407" height="219" viewBox="0 0 2407 219" fill="none" xmlns="http://www.w3.org/2000/svg">
<path d="M1881.14 131.731C1737.91 19.7271 1659.37 201.351 1507.01 201.351C1354.65 201.351 1359.29 126.098 1180.72 126.098C1002.16 126.098 980.193 201.351 844.983 201.351C709.772 201.351 658.258 126.098 532.885 126.098C407.511 126.098 376.842 201.351 253.887 201.351C130.932 201.351 7.69965e-05 126.098 7.69965e-05 126.098L6.59727e-05 0.000179861L2406.45 -6.10351e-05C2406.45 -6.10351e-05 2406.45 62.803 2406.45 126.098C2406.45 189.393 2249.58 249.275 2121.75 201.35C1993.92 153.426 2024.36 243.736 1881.14 131.731Z" fill="#FBEEEA"/>
</svg>
