<svg width="24" height="24" viewBox="0 0 24 24" fill="none" xmlns="http://www.w3.org/2000/svg">
<path opacity="0.4" d="M12 22C17.5228 22 22 17.5228 22 12C22 6.47715 17.5228 2 12 2C6.47715 2 2 6.47715 2 12C2 17.5228 6.47715 22 12 22Z" fill="#292D32"/>
<path d="M10.7399 16.28C10.5499 16.28 10.3599 16.21 10.2099 16.06C9.91993 15.77 9.91993 15.29 10.2099 15L13.2099 12L10.2099 9C9.91993 8.71 9.91993 8.23 10.2099 7.94C10.4999 7.65 10.9799 7.65 11.2699 7.94L14.7999 11.47C15.0899 11.76 15.0899 12.24 14.7999 12.53L11.2699 16.06C11.1199 16.21 10.9299 16.28 10.7399 16.28Z" fill="#292D32"/>
</svg>
