<svg width="24" height="24" viewBox="0 0 24 24" fill="none" xmlns="http://www.w3.org/2000/svg">
<path d="M15.7123 16.773L7.22699 8.28769C6.93708 7.99778 6.93708 7.51694 7.22699 7.22703C7.51691 6.93712 7.99774 6.93712 8.28765 7.22703L16.7729 15.7123C17.0628 16.0022 17.0628 16.4831 16.7729 16.773C16.483 17.0629 16.0022 17.0629 15.7123 16.773Z" fill="#292D32"/>
<path d="M7.22706 16.773C6.93715 16.4831 6.93715 16.0022 7.22706 15.7123L15.7123 7.22703C16.0023 6.93712 16.4831 6.93712 16.773 7.22703C17.0629 7.51694 17.0629 7.99778 16.773 8.28769L8.28772 16.773C7.99781 17.0629 7.51698 17.0629 7.22706 16.773Z" fill="#292D32"/>
</svg>
