<svg width="24" height="24" viewBox="0 0 24 24" fill="none" xmlns="http://www.w3.org/2000/svg">
<path d="M12.1499 16.5V18.6" stroke="#292D32" stroke-width="1.5" stroke-linecap="round" stroke-linejoin="round"/>
<path d="M7.1499 22H17.1499V21C17.1499 19.9 16.2499 19 15.1499 19H9.1499C8.0499 19 7.1499 19.9 7.1499 21V22V22Z" stroke="#292D32" stroke-width="1.5" stroke-miterlimit="10"/>
<path d="M6.1499 22H18.1499" stroke="#292D32" stroke-width="1.5" stroke-linecap="round" stroke-linejoin="round"/>
<path d="M8.51 15.07C6.41 13.86 5 11.6 5 9V6C5 3.79 6.79 2 9 2H15C17.21 2 19 3.79 19 6V9C19 12.82 15.95 15.92 12.15 16C12.1 16 12 16 12 16" stroke="#292D32" stroke-width="1.5" stroke-linecap="round" stroke-linejoin="round"/>
<path d="M5.47004 11.65C4.72004 11.41 4.06004 10.97 3.54004 10.45C2.64004 9.45 2.04004 8.25 2.04004 6.85C2.04004 5.45 3.14004 4.35 4.54004 4.35H5.19004C4.99004 4.81 4.89004 5.32 4.89004 5.85V8.85C4.89004 9.85 5.10004 10.79 5.47004 11.65Z" stroke="#292D32" stroke-width="1.5" stroke-linecap="round" stroke-linejoin="round"/>
<path d="M18.5298 11.65C19.2798 11.41 19.9398 10.97 20.4598 10.45C21.3598 9.45 21.9598 8.25 21.9598 6.85C21.9598 5.45 20.8598 4.35 19.4598 4.35H18.8098C19.0098 4.81 19.1098 5.32 19.1098 5.85V8.85C19.1098 9.85 18.8998 10.79 18.5298 11.65Z" stroke="#292D32" stroke-width="1.5" stroke-linecap="round" stroke-linejoin="round"/>
</svg>
