<svg width="24" height="24" viewBox="0 0 24 24" fill="none" xmlns="http://www.w3.org/2000/svg">
<path d="M12.1499 19.35C11.7399 19.35 11.3999 19.01 11.3999 18.6V16.5C11.3999 16.09 11.7399 15.75 12.1499 15.75C12.5599 15.75 12.8999 16.09 12.8999 16.5V18.6C12.8999 19.01 12.5599 19.35 12.1499 19.35Z" fill="#292D32"/>
<path d="M17.8999 22.75H6.3999V21C6.3999 19.48 7.6299 18.25 9.1499 18.25H15.1499C16.6699 18.25 17.8999 19.48 17.8999 21V22.75ZM7.8999 21.25H16.3999V21C16.3999 20.31 15.8399 19.75 15.1499 19.75H9.1499C8.4599 19.75 7.8999 20.31 7.8999 21V21.25Z" fill="#292D32"/>
<path d="M18.1499 22.75H6.1499C5.7399 22.75 5.3999 22.41 5.3999 22C5.3999 21.59 5.7399 21.25 6.1499 21.25H18.1499C18.5599 21.25 18.8999 21.59 18.8999 22C18.8999 22.41 18.5599 22.75 18.1499 22.75Z" fill="#292D32"/>
<path d="M18.4302 12.44C18.2202 12.44 18.0102 12.35 17.8602 12.18C17.6702 11.96 17.6202 11.65 17.7402 11.39C18.0802 10.61 18.2502 9.78 18.2502 8.91V5.91C18.2502 5.56 18.1902 5.22 18.0702 4.86C18.0602 4.83 18.0502 4.79 18.0402 4.75C18.0102 4.6 18.0002 4.45 18.0002 4.31C18.0002 3.9 18.3402 3.56 18.7502 3.56H19.3502C21.1402 3.56 22.6002 5.06 22.6002 6.91C22.6002 8.44 21.9702 9.95 20.8802 11.04C20.8602 11.06 20.8002 11.11 20.7902 11.12C20.2002 11.61 19.5302 12.16 18.6302 12.41C18.5602 12.43 18.5002 12.44 18.4302 12.44ZM19.6802 5.09C19.7302 5.36 19.7502 5.64 19.7502 5.91V8.91C19.7502 9.32 19.7202 9.71 19.6602 10.11C19.7202 10.06 19.7702 10.02 19.8302 9.97C20.6302 9.17 21.1002 8.05 21.1002 6.91C21.1002 6.01 20.4902 5.25 19.6802 5.09Z" fill="#292D32"/>
<path d="M5.5799 12.4C5.4999 12.4 5.4299 12.39 5.3499 12.36C4.5299 12.1 3.7599 11.62 3.1199 10.98C1.9699 9.71001 1.3999 8.32001 1.3999 6.85001C1.3999 5.03001 2.8299 3.60001 4.6499 3.60001H5.2999C5.5499 3.60001 5.7899 3.73001 5.9299 3.94001C6.0699 4.15001 6.0899 4.42001 5.9899 4.65001C5.8299 5.01001 5.7499 5.42001 5.7499 5.85001V8.85001C5.7499 9.71001 5.9199 10.55 6.2699 11.35C6.3899 11.62 6.3299 11.93 6.1399 12.15C5.9899 12.31 5.7899 12.4 5.5799 12.4ZM4.2999 5.13001C3.4899 5.29001 2.8999 5.99001 2.8999 6.85001C2.8999 7.94001 3.3399 8.99001 4.2099 9.95001C4.2499 10 4.2999 10.04 4.3499 10.08C4.2799 9.67001 4.2499 9.26001 4.2499 8.85001V5.85001C4.2499 5.61001 4.2699 5.37001 4.2999 5.13001Z" fill="#292D32"/>
<path d="M12 16.75C7.73 16.75 4.25 13.27 4.25 9V6C4.25 3.38 6.38 1.25 9 1.25H15C17.62 1.25 19.75 3.38 19.75 6V9C19.75 13.27 16.27 16.75 12 16.75ZM9 2.75C7.21 2.75 5.75 4.21 5.75 6V9C5.75 12.45 8.55 15.25 12 15.25C15.45 15.25 18.25 12.45 18.25 9V6C18.25 4.21 16.79 2.75 15 2.75H9Z" fill="#292D32"/>
</svg>
