<svg width="24" height="24" viewBox="0 0 24 24" fill="none" xmlns="http://www.w3.org/2000/svg">
<path d="M14.5299 9.47L9.46992 14.53C8.81992 13.88 8.41992 12.99 8.41992 12C8.41992 10.02 10.0199 8.42 11.9999 8.42C12.9899 8.42 13.8799 8.82 14.5299 9.47Z" stroke="#292D32" stroke-width="1.5" stroke-linecap="round" stroke-linejoin="round"/>
<path d="M5.60009 17.76C4.60009 16.9 3.69009 15.84 2.89009 14.59C1.99009 13.18 1.99009 10.81 2.89009 9.4C4.07009 7.55 5.51009 6.1 7.12009 5.13" stroke="#292D32" stroke-width="1.5" stroke-linecap="round" stroke-linejoin="round"/>
<path d="M17.82 5.77C16.07 4.45 14.07 3.73 12 3.73" stroke="#292D32" stroke-width="1.5" stroke-linecap="round" stroke-linejoin="round"/>
<path d="M8.41992 19.53C9.55992 20.01 10.7699 20.27 11.9999 20.27C15.5299 20.27 18.8199 18.19 21.1099 14.59C22.0099 13.18 22.0099 10.81 21.1099 9.4C20.7799 8.88 20.4199 8.39 20.0499 7.93" stroke="#292D32" stroke-width="1.5" stroke-linecap="round" stroke-linejoin="round"/>
<path d="M15.5099 12.7C15.2499 14.11 14.0999 15.26 12.6899 15.52" stroke="#292D32" stroke-width="1.5" stroke-linecap="round" stroke-linejoin="round"/>
<path d="M9.47 14.53L2 22" stroke="#292D32" stroke-width="1.5" stroke-linecap="round" stroke-linejoin="round"/>
<path d="M22 2L14.53 9.47" stroke="#292D32" stroke-width="1.5" stroke-linecap="round" stroke-linejoin="round"/>
</svg>
