<svg width="24" height="24" viewBox="0 0 24 24" fill="none" xmlns="http://www.w3.org/2000/svg">
<path d="M9.02992 14C8.63992 13.43 8.41992 12.74 8.41992 12C8.41992 10.02 10.0199 8.42 11.9999 8.42C13.9799 8.42 15.5799 10.02 15.5799 12C15.5799 13.98 13.9799 15.58 11.9999 15.58" stroke="#292D32" stroke-width="1.5" stroke-linecap="round" stroke-linejoin="round"/>
<path d="M17.5601 5.58C15.8701 4.38 13.9701 3.73 12.0001 3.73C8.47009 3.73 5.18009 5.81 2.89009 9.41C1.99009 10.82 1.99009 13.19 2.89009 14.6C5.18009 18.2 8.47009 20.28 12.0001 20.28C15.5301 20.28 18.8201 18.2 21.1101 14.6C22.0101 13.19 22.0101 10.82 21.1101 9.41" stroke="#292D32" stroke-width="1.5" stroke-linecap="round" stroke-linejoin="round"/>
</svg>
