<svg width="24" height="24" viewBox="0 0 24 24" fill="none" xmlns="http://www.w3.org/2000/svg">
<path d="M22 9.75C21.59 9.75 21.25 9.41 21.25 9V7C21.25 4.42 19.58 2.75 17 2.75H15C14.59 2.75 14.25 2.41 14.25 2C14.25 1.59 14.59 1.25 15 1.25H17C20.44 1.25 22.75 3.56 22.75 7V9C22.75 9.41 22.41 9.75 22 9.75Z" fill="#292D32"/>
<path d="M2 9.75C1.59 9.75 1.25 9.41 1.25 9V7C1.25 3.56 3.56 1.25 7 1.25H9C9.41 1.25 9.75 1.59 9.75 2C9.75 2.41 9.41 2.75 9 2.75H7C4.42 2.75 2.75 4.42 2.75 7V9C2.75 9.41 2.41 9.75 2 9.75Z" fill="#292D32"/>
<path d="M17 22.75H15C14.59 22.75 14.25 22.41 14.25 22C14.25 21.59 14.59 21.25 15 21.25H17C19.58 21.25 21.25 19.58 21.25 17V15C21.25 14.59 21.59 14.25 22 14.25C22.41 14.25 22.75 14.59 22.75 15V17C22.75 20.44 20.44 22.75 17 22.75Z" fill="#292D32"/>
<path d="M9 22.75H7C3.56 22.75 1.25 20.44 1.25 17V15C1.25 14.59 1.59 14.25 2 14.25C2.41 14.25 2.75 14.59 2.75 15V17C2.75 19.58 4.42 21.25 7 21.25H9C9.41 21.25 9.75 21.59 9.75 22C9.75 22.41 9.41 22.75 9 22.75Z" fill="#292D32"/>
<path d="M12.0001 9.87C11.5101 9.87 11.1001 10.27 11.1001 10.77V13.24C11.1001 13.74 11.5001 14.14 12.0001 14.14C12.5001 14.14 12.9001 13.74 12.9001 13.24V10.77C12.9001 10.27 12.4901 9.87 12.0001 9.87Z" fill="#292D32"/>
<path d="M15.53 7.39999C15.19 7.05999 14.8 6.76999 14.38 6.52999C14.24 6.45999 14.09 6.38999 13.94 6.31999C13.79 6.25999 13.64 6.19999 13.48 6.15999C13.32 6.10999 13.16 6.06999 13 6.02999C12.99 6.02999 12.97 6.02999 12.96 6.01999C12.65 5.95999 12.33 5.92999 12.01 5.92999H11.99C11.67 5.92999 11.36 5.95999 11.05 6.01999C11.01 6.02999 10.97 6.02999 10.94 6.04999C10.8 6.07999 10.66 6.10999 10.52 6.15999C10.35 6.19999 10.18 6.26999 10.01 6.33999C9.88001 6.39999 9.75001 6.46999 9.63001 6.52999C9.48001 6.60999 9.35001 6.69999 9.21001 6.78999C8.95001 6.96999 8.70001 7.16999 8.47001 7.39999C8.36001 7.50999 8.25001 7.62999 8.15001 7.74999C8.05001 7.87999 7.95001 7.99999 7.86001 8.13999C7.77001 8.26999 7.69001 8.40999 7.61001 8.54999C7.23001 9.25999 7.01001 10.07 7.01001 10.93V13.07C7.01001 14.8 7.89001 16.32 9.21001 17.21C9.33001 17.3 9.46001 17.37 9.59001 17.45L10.14 17.71C10.42 17.82 10.71 17.91 11 17.97C11.32 18.03 11.65 18.07 11.99 18.07C12 18.07 12 18.07 12.01 18.07C12.35 18.07 12.68 18.03 13 17.97C13.3 17.91 13.59 17.82 13.87 17.71C14.06 17.63 14.24 17.54 14.41 17.45C15.95 16.6 16.99 14.95 16.99 13.07V10.93C16.99 9.54999 16.43 8.29999 15.53 7.39999ZM14.4 13.24C14.4 14.56 13.32 15.64 12 15.64C10.68 15.64 9.60001 14.56 9.60001 13.24V10.77C9.60001 9.44999 10.68 8.36999 12 8.36999C13.32 8.36999 14.4 9.44999 14.4 10.77V13.24Z" fill="#292D32"/>
</svg>
