<svg width="24" height="24" viewBox="0 0 24 24" fill="none" xmlns="http://www.w3.org/2000/svg">
<path opacity="0.4" d="M16.99 10.93V13.07C16.99 14.95 15.95 16.6 14.41 17.45C14.24 17.54 14.06 17.63 13.87 17.71C13.59 17.82 13.3 17.91 13 17.97C12.68 18.03 12.35 18.07 12.01 18.07C12 18.07 12 18.07 11.99 18.07C11.65 18.07 11.32 18.03 11 17.97C10.71 17.91 10.42 17.82 10.14 17.71L9.59 17.45C9.46 17.37 9.33001 17.3 9.21001 17.21C7.89001 16.32 7.01001 14.8 7.01001 13.07V10.93C7.01001 10.07 7.23001 9.25999 7.61001 8.54999C7.69001 8.40999 7.77001 8.27001 7.86001 8.14001C7.95001 8.00001 8.05001 7.88 8.15001 7.75C8.25001 7.63 8.36001 7.50999 8.47001 7.39999C8.70001 7.16999 8.95001 6.97001 9.21001 6.79001C9.35001 6.70001 9.48 6.61 9.63 6.53C9.75 6.47 9.88001 6.4 10.01 6.34C10.18 6.27 10.35 6.2 10.52 6.16C10.66 6.11 10.8 6.07999 10.94 6.04999C10.97 6.02999 11.01 6.02999 11.05 6.01999C11.36 5.95999 11.67 5.92999 11.99 5.92999H12.01C12.33 5.92999 12.65 5.95999 12.96 6.01999C12.97 6.02999 12.99 6.03 13 6.03C13.16 6.07 13.32 6.11 13.48 6.16C13.64 6.2 13.79 6.26001 13.94 6.32001C14.09 6.39001 14.24 6.46 14.38 6.53C14.8 6.77 15.19 7.05999 15.53 7.39999C16.43 8.29999 16.99 9.54999 16.99 10.93Z" fill="#292D32"/>
<path d="M22 9.75C21.59 9.75 21.25 9.41 21.25 9V7C21.25 4.42 19.58 2.75 17 2.75H15C14.59 2.75 14.25 2.41 14.25 2C14.25 1.59 14.59 1.25 15 1.25H17C20.44 1.25 22.75 3.56 22.75 7V9C22.75 9.41 22.41 9.75 22 9.75Z" fill="#292D32"/>
<path d="M2 9.75C1.59 9.75 1.25 9.41 1.25 9V7C1.25 3.56 3.56 1.25 7 1.25H9C9.41 1.25 9.75 1.59 9.75 2C9.75 2.41 9.41 2.75 9 2.75H7C4.42 2.75 2.75 4.42 2.75 7V9C2.75 9.41 2.41 9.75 2 9.75Z" fill="#292D32"/>
<path d="M17 22.75H15C14.59 22.75 14.25 22.41 14.25 22C14.25 21.59 14.59 21.25 15 21.25H17C19.58 21.25 21.25 19.58 21.25 17V15C21.25 14.59 21.59 14.25 22 14.25C22.41 14.25 22.75 14.59 22.75 15V17C22.75 20.44 20.44 22.75 17 22.75Z" fill="#292D32"/>
<path d="M9 22.75H7C3.56 22.75 1.25 20.44 1.25 17V15C1.25 14.59 1.59 14.25 2 14.25C2.41 14.25 2.75 14.59 2.75 15V17C2.75 19.58 4.42 21.25 7 21.25H9C9.41 21.25 9.75 21.59 9.75 22C9.75 22.41 9.41 22.75 9 22.75Z" fill="#292D32"/>
<path d="M12.0001 15.63C10.6801 15.63 9.6001 14.55 9.6001 13.23V10.76C9.6001 9.44001 10.6801 8.35999 12.0001 8.35999C13.3201 8.35999 14.4001 9.44001 14.4001 10.76V13.23C14.4001 14.56 13.3201 15.63 12.0001 15.63ZM12.0001 9.87C11.5101 9.87 11.1001 10.27 11.1001 10.77V13.24C11.1001 13.74 11.5001 14.14 12.0001 14.14C12.5001 14.14 12.9001 13.74 12.9001 13.24V10.77C12.9001 10.27 12.4901 9.87 12.0001 9.87Z" fill="#292D32"/>
</svg>
