<svg width="24" height="24" viewBox="0 0 24 24" fill="none" xmlns="http://www.w3.org/2000/svg">
<path d="M12.0001 9.12C12.9101 9.12 13.6501 9.86002 13.6501 10.77V13.24C13.6501 14.15 12.9101 14.89 12.0001 14.89C11.0901 14.89 10.3501 14.15 10.3501 13.24" stroke="#292D32" stroke-width="1.5" stroke-linecap="round"/>
<path d="M16.98 13.47C16.78 16.05 14.62 18.07 12 18.07C9.24 18.07 7 15.83 7 13.07V10.93C7 8.16999 9.24 5.92999 12 5.92999C14.59 5.92999 16.72 7.89998 16.97 10.42" stroke="#292D32" stroke-width="1.5" stroke-linecap="round"/>
<path d="M15 2H17C20 2 22 4 22 7V9" stroke="#292D32" stroke-width="1.5" stroke-miterlimit="10" stroke-linecap="round" stroke-linejoin="round"/>
<path d="M2 9V7C2 4 4 2 7 2H9" stroke="#292D32" stroke-width="1.5" stroke-miterlimit="10" stroke-linecap="round" stroke-linejoin="round"/>
<path d="M15 22H17C20 22 22 20 22 17V15" stroke="#292D32" stroke-width="1.5" stroke-miterlimit="10" stroke-linecap="round" stroke-linejoin="round"/>
<path d="M2 15V17C2 20 4 22 7 22H9" stroke="#292D32" stroke-width="1.5" stroke-miterlimit="10" stroke-linecap="round" stroke-linejoin="round"/>
</svg>
