<svg width="24" height="24" viewBox="0 0 24 24" fill="none" xmlns="http://www.w3.org/2000/svg">
<g id="Fire icon">
<path id="Vector" d="M9.61885 1.41C9.9676 1.1175 10.4813 1.12875 10.8151 1.44375C11.2763 1.87875 11.6888 2.35875 12.0863 2.84625C12.5926 3.465 13.2001 4.2825 13.7851 5.25375C13.9801 4.99875 14.1601 4.77375 14.3176 4.5825C14.3588 4.53375 14.4001 4.48125 14.4413 4.42875C14.7376 4.06125 15.1051 3.6 15.5963 3.6C16.0988 3.6 16.4513 4.04625 16.7513 4.42875C16.8001 4.4925 16.8488 4.5525 16.8976 4.60875C17.2838 5.07375 17.7976 5.745 18.3113 6.57375C19.3313 8.22 20.3963 10.5638 20.3963 13.1963C20.3963 17.835 16.6351 21.5963 11.9963 21.5963C7.3576 21.5963 3.6001 17.8388 3.6001 13.2C3.6001 9.78375 5.14135 6.825 6.61885 4.7625C7.3651 3.72375 8.1076 2.89125 8.66635 2.32125C8.97385 2.00625 9.2851 1.695 9.6226 1.41375L9.61885 1.41ZM12.0638 18C13.0126 18 13.8526 17.7375 14.6438 17.2125C16.2226 16.11 16.6463 13.905 15.6976 12.1725C15.5288 11.835 15.0976 11.8125 14.8538 12.0975L13.9088 13.1963C13.6613 13.4813 13.2151 13.4738 12.9826 13.1775C12.3338 12.3488 11.1413 10.8375 10.5338 10.065C10.3313 9.80625 9.96385 9.765 9.7276 9.99375C9.04135 10.6613 7.79635 12.1238 7.79635 13.905C7.79635 16.4775 9.69385 18 12.0601 18H12.0638Z" fill="black"/>
</g>
</svg>
