<svg width="24" height="24" viewBox="0 0 24 24" fill="none" xmlns="http://www.w3.org/2000/svg">
<path d="M20.04 6.82L14.28 2.79C12.71 1.69 10.3 1.75 8.78999 2.92L3.77999 6.83C2.77999 7.61 1.98999 9.21 1.98999 10.47V17.37C1.98999 19.92 4.05999 22 6.60999 22H17.39C19.94 22 22.01 19.93 22.01 17.38V10.6C22.01 9.25 21.14 7.59 20.04 6.82ZM16.88 13.4C16.88 13.79 16.57 14.1 16.18 14.1C15.79 14.1 15.48 13.79 15.48 13.4V13.22L12.76 15.94C12.61 16.09 12.41 16.16 12.2 16.14C12 16.12 11.81 16 11.7 15.83L10.68 14.31L8.29999 16.69C8.15999 16.83 7.98999 16.89 7.80999 16.89C7.62999 16.89 7.44999 16.82 7.31999 16.69C7.04999 16.42 7.04999 15.98 7.31999 15.7L10.3 12.72C10.45 12.57 10.65 12.5 10.86 12.52C11.07 12.54 11.26 12.65 11.37 12.83L12.39 14.35L14.5 12.24H14.32C13.93 12.24 13.62 11.93 13.62 11.54C13.62 11.15 13.93 10.84 14.32 10.84H16.18C16.27 10.84 16.36 10.86 16.45 10.89C16.62 10.96 16.76 11.1 16.83 11.27C16.87 11.36 16.88 11.45 16.88 11.54V13.4Z" fill="#292D32"/>
</svg>
