<svg width="24" height="24" viewBox="0 0 24 24" fill="none" xmlns="http://www.w3.org/2000/svg">
<path d="M17.79 22.74H6.21C3.47 22.74 1.25 20.51 1.25 17.77V10.36C1.25 8.99999 2.09 7.28999 3.17 6.44999L8.56 2.24999C10.18 0.989995 12.77 0.929995 14.45 2.10999L20.63 6.43999C21.82 7.26999 22.75 9.05 22.75 10.5V17.78C22.75 20.51 20.53 22.74 17.79 22.74ZM9.48 3.42999L4.09 7.62999C3.38 8.18999 2.75 9.46 2.75 10.36V17.77C2.75 19.68 4.3 21.24 6.21 21.24H17.79C19.7 21.24 21.25 19.69 21.25 17.78V10.5C21.25 9.54 20.56 8.20999 19.77 7.66999L13.59 3.33999C12.45 2.53999 10.57 2.57999 9.48 3.42999Z" fill="#292D32"/>
<path d="M7.49994 17.25C7.30994 17.25 7.11994 17.18 6.96994 17.03C6.67994 16.74 6.67994 16.26 6.96994 15.97L10.1699 12.77C10.3299 12.61 10.5399 12.53 10.7699 12.55C10.9899 12.57 11.1899 12.69 11.3199 12.88L12.4099 14.52L15.9599 10.97C16.2499 10.68 16.7299 10.68 17.0199 10.97C17.3099 11.26 17.3099 11.74 17.0199 12.03L12.8199 16.23C12.6599 16.39 12.4499 16.47 12.2199 16.45C11.9999 16.43 11.7999 16.31 11.6699 16.12L10.5799 14.48L8.02994 17.03C7.87994 17.18 7.68994 17.25 7.49994 17.25Z" fill="#292D32"/>
<path d="M16.5 14.25C16.09 14.25 15.75 13.91 15.75 13.5V12.25H14.5C14.09 12.25 13.75 11.91 13.75 11.5C13.75 11.09 14.09 10.75 14.5 10.75H16.5C16.91 10.75 17.25 11.09 17.25 11.5V13.5C17.25 13.91 16.91 14.25 16.5 14.25Z" fill="#292D32"/>
</svg>
