<svg width="24" height="24" viewBox="0 0 24 24" fill="none" xmlns="http://www.w3.org/2000/svg">
<path opacity="0.4" d="M20.04 6.82L14.28 2.79C12.71 1.69 10.3 1.75 8.78999 2.92L3.77999 6.83C2.77999 7.61 1.98999 9.21 1.98999 10.47V17.37C1.98999 19.92 4.05999 22 6.60999 22H17.39C19.94 22 22.01 19.93 22.01 17.38V10.6C22.01 9.25 21.14 7.59 20.04 6.82Z" fill="#292D32"/>
<path d="M16.8299 11.27C16.7599 11.1 16.6199 10.96 16.4499 10.89C16.3599 10.85 16.2699 10.84 16.1799 10.84H14.3199C13.9299 10.84 13.6199 11.15 13.6199 11.54C13.6199 11.93 13.9299 12.24 14.3199 12.24H14.4999L12.3899 14.35L11.3699 12.83C11.2499 12.66 11.0699 12.54 10.8599 12.52C10.6399 12.5 10.4499 12.57 10.2999 12.72L7.31993 15.7C7.04993 15.97 7.04993 16.41 7.31993 16.69C7.45993 16.83 7.62993 16.89 7.80993 16.89C7.98993 16.89 8.16993 16.82 8.29993 16.69L10.6799 14.31L11.6999 15.83C11.8199 16 11.9999 16.12 12.2099 16.14C12.4299 16.16 12.6199 16.09 12.7699 15.94L15.4899 13.22V13.4C15.4899 13.79 15.7999 14.1 16.1899 14.1C16.5799 14.1 16.8899 13.79 16.8899 13.4V11.54C16.8799 11.44 16.8699 11.35 16.8299 11.27Z" fill="#292D32"/>
</svg>
