<svg width="24" height="24" viewBox="0 0 24 24" fill="none" xmlns="http://www.w3.org/2000/svg">
<path opacity="0.4" d="M10.7499 2.45C11.4399 1.86 12.5699 1.86 13.2699 2.45L14.8499 3.81C15.1499 4.07 15.7099 4.28 16.1099 4.28H17.8099C18.8699 4.28 19.7399 5.15 19.7399 6.21V7.91C19.7399 8.3 19.9499 8.87 20.2099 9.17L21.5699 10.75C22.1599 11.44 22.1599 12.57 21.5699 13.27L20.2099 14.85C19.9499 15.15 19.7399 15.71 19.7399 16.11V17.81C19.7399 18.87 18.8699 19.74 17.8099 19.74H16.1099C15.7199 19.74 15.1499 19.95 14.8499 20.21L13.2699 21.57C12.5799 22.16 11.4499 22.16 10.7499 21.57L9.16988 20.21C8.86988 19.95 8.30988 19.74 7.90988 19.74H6.17988C5.11988 19.74 4.24988 18.87 4.24988 17.81V16.1C4.24988 15.71 4.03988 15.15 3.78988 14.85L2.43988 13.26C1.85988 12.57 1.85988 11.45 2.43988 10.76L3.78988 9.17C4.03988 8.87 4.24988 8.31 4.24988 7.92V6.2C4.24988 5.14 5.11988 4.27 6.17988 4.27H7.90988C8.29988 4.27 8.86988 4.06 9.16988 3.8L10.7499 2.45Z" fill="#292D32"/>
<path d="M10.7901 15.17C10.5901 15.17 10.4001 15.09 10.2601 14.95L7.84006 12.53C7.55006 12.24 7.55006 11.76 7.84006 11.47C8.13006 11.18 8.61006 11.18 8.90006 11.47L10.7901 13.36L15.0901 9.06C15.3801 8.77 15.8601 8.77 16.1501 9.06C16.4401 9.35 16.4401 9.83 16.1501 10.12L11.3201 14.95C11.1801 15.09 10.9901 15.17 10.7901 15.17Z" fill="#292D32"/>
</svg>
