<svg width="24" height="24" viewBox="0 0 24 24" fill="none" xmlns="http://www.w3.org/2000/svg">
<path d="M8.37988 12L10.7899 14.42L15.6199 9.58" stroke="#292D32" stroke-width="1.5" stroke-linecap="round" stroke-linejoin="round"/>
<path d="M4.23988 6.2C4.23988 5.14 5.10988 4.27 6.16988 4.27H7.89988C8.29988 4.27 8.85988 4.06 9.15988 3.81L10.7399 2.46C11.4399 1.87 12.5699 1.87 13.2499 2.46L14.8299 3.81C15.1299 4.06 15.6999 4.27 16.0999 4.27H17.7999C18.8599 4.27 19.7299 5.14 19.7299 6.2V7.9C19.7299 8.3 19.9399 8.86 20.1899 9.16L21.5399 10.74C22.1299 11.44 22.1299 12.57 21.5399 13.25L20.1899 14.83C19.9399 15.13 19.7299 15.69 19.7299 16.09V17.79C19.7299 18.85 18.8599 19.72 17.7999 19.72H16.0999C15.6999 19.72 15.1399 19.93 14.8399 20.18L13.2599 21.53C12.5599 22.12 11.4299 22.12 10.7499 21.53L9.16988 20.18C8.86988 19.93 8.29988 19.72 7.90988 19.72H6.16988C5.10988 19.72 4.23988 18.85 4.23988 17.79V16.08C4.23988 15.69 4.03988 15.12 3.78988 14.83L2.43988 13.24C1.85988 12.55 1.85988 11.43 2.43988 10.74L2.99988 10.08" stroke="#292D32" stroke-width="1.5" stroke-linecap="round" stroke-linejoin="round"/>
</svg>
